<svg width="68" height="68" viewBox="0 0 68 68" fill="none" xmlns="http://www.w3.org/2000/svg">
<g clip-path="url(#clip0_2001_38)">
<path d="M63.6037 29.5598C64.0281 27.656 62.8288 25.7684 60.925 25.344L55.0405 24.0323C56.8982 22.8696 58.3119 21.1176 58.8525 18.6924C59.5182 15.7062 58.5263 12.08 53.7122 11.0068C47.3778 9.59475 40.5827 15.1598 37.2535 18.3863C35.608 14.0517 31.6579 6.09138 25.3244 4.6795C20.5103 3.60633 18.0721 6.46792 17.4064 9.45414C16.866 11.8784 17.4282 14.0718 18.6473 15.9204L12.6628 14.5863C10.759 14.1619 8.87138 15.3613 8.44699 17.2651L6.14676 27.5837L9.62422 28.3589L4.62242 50.7965C4.19803 52.7002 5.39742 54.5878 7.30124 55.0122L48.6515 64.2301C50.5552 64.6544 52.4429 63.455 52.8673 61.5512L57.8693 39.1128L61.3036 39.8784L63.6039 29.5598L63.6037 29.5598ZM52.9435 14.455C55.0748 14.9301 55.8258 16.0375 55.405 17.9249C54.5515 21.7539 49.8172 22.867 45.7976 21.9709L39.9622 20.6701C43.2224 17.5783 48.6568 13.4994 52.9435 14.455ZM24.5559 8.12684C28.8434 9.08262 32.1936 15.1198 33.8322 19.3027L27.995 18.0015C23.9755 17.1055 20.0121 13.9974 20.8657 10.1683C21.2862 8.28181 22.4245 7.65172 24.5559 8.12684ZM58.6248 35.6626L36.2174 30.6676L37.7491 23.7962L60.1565 28.7913L58.6248 35.6626ZM11.8944 18.0327L34.3018 23.0278L32.7701 29.8991L10.3627 24.904L11.8944 18.0327ZM13.0716 29.1265L32.0016 33.3464L26.9998 55.784L8.06985 51.5641L13.0716 29.1265ZM49.421 60.7821L30.4471 56.5524L35.4489 34.1149L54.4228 38.3445L49.421 60.7821Z" fill="url(#paint0_linear_2001_38)"/>
</g>
<defs>
<linearGradient id="paint0_linear_2001_38" x1="39.3367" y1="6.64834" x2="27.9548" y2="59.6164" gradientUnits="userSpaceOnUse">
<stop stop-color="white"/>
<stop offset="1" stop-color="#6D34FE"/>
</linearGradient>
<clipPath id="clip0_2001_38">
<rect width="56.5105" height="56.5105" fill="white" transform="translate(12.2955) rotate(12.5669)"/>
</clipPath>
</defs>
</svg>
