<svg width="20" height="20" viewBox="0 0 20 20" fill="none" xmlns="http://www.w3.org/2000/svg">
<path d="M8.61051 0.815046C8.81504 -0.271681 10.3715 -0.271686 10.576 0.815041L11.6844 6.70434C11.7606 7.10923 12.0773 7.42594 12.4822 7.50214L18.3715 8.61051C19.4582 8.81504 19.4582 10.3715 18.3715 10.576L12.4822 11.6844C12.0773 11.7606 11.7606 12.0773 11.6844 12.4822L10.576 18.3715C10.3715 19.4582 8.81504 19.4582 8.61051 18.3715L7.50214 12.4822C7.42594 12.0773 7.10923 11.7606 6.70435 11.6844L0.815046 10.576C-0.271681 10.3715 -0.271686 8.81504 0.815041 8.61051L6.70434 7.50214C7.10923 7.42594 7.42594 7.10923 7.50214 6.70435L8.61051 0.815046Z" fill="url(#paint0_linear_28_27808)"/>
<defs>
<linearGradient id="paint0_linear_28_27808" x1="9.59326" y1="-4.40674" x2="9.59326" y2="23.5933" gradientUnits="userSpaceOnUse">
<stop stop-color="white"/>
<stop offset="1" stop-color="#4400FF"/>
</linearGradient>
</defs>
</svg>
